<svg width="54" height="51" viewBox="0 0 54 51" fill="none" xmlns="http://www.w3.org/2000/svg">
<g clip-path="url(#clip0)">
<path d="M41.7661 50.7502H22.1766C21.585 50.7502 21.0727 50.3579 20.9429 49.8069L11.2944 8.7234C11.2101 8.36492 11.3003 7.98953 11.5413 7.70275C11.7806 7.41678 12.1438 7.25003 12.5273 7.25003H37.6139C38.2055 7.25003 38.7179 7.64234 38.8477 8.19334L47.2894 44.0987C47.672 45.7243 47.2624 47.4071 46.1669 48.7161C45.0848 50.0091 43.4811 50.7502 41.7661 50.7502ZM23.1879 48.3335H41.7661C42.7091 48.3335 43.594 47.9227 44.194 47.2057C44.8067 46.4735 45.0359 45.5342 44.8227 44.6287L36.6026 9.66671H14.1066L23.1879 48.3335Z" fill="black"/>
<path d="M30.77 50.7502H11.3239C9.70496 50.7502 8.15937 50.0751 7.0832 48.8974C5.99185 47.7044 5.49295 46.1239 5.71375 44.5619L10.83 8.29726C10.9143 7.69712 11.4494 7.25003 12.0823 7.25003H37.5119C38.2097 7.25003 38.776 7.79056 38.776 8.45837C38.776 9.12618 38.2097 9.66671 37.5119 9.66671H13.188L8.21837 44.8857C8.09617 45.7565 8.37596 46.6386 8.9861 47.3072C9.59119 47.9686 10.4213 48.3335 11.3239 48.3335H30.77C31.4678 48.3335 32.0341 48.874 32.0341 49.5418C32.0341 50.2096 31.4678 50.7502 30.77 50.7502Z" fill="black"/>
<path d="M30.7085 9.26392C30.0107 9.26392 29.4444 8.72339 29.4444 8.05558V5.63005C29.4444 3.91824 27.6115 2.41668 25.9327 2.41668H23.7332C22.0663 2.41668 21.017 3.88843 21.017 5.63005V8.05558C21.017 8.72339 20.4507 9.26392 19.7529 9.26392C19.0552 9.26392 18.4888 8.72339 18.4888 8.05558V5.63005C18.4888 2.57859 20.696 0 23.7332 0H25.9327C29.0113 0 31.9726 2.57859 31.9726 5.63005V8.05558C31.9726 8.72339 31.4063 9.26392 30.7085 9.26392Z" fill="black"/>
</g>
<defs>
<clipPath id="clip0">
<rect width="53.0925" height="50.7502" fill="white"/>
</clipPath>
</defs>
</svg>
