<svg xmlns="http://www.w3.org/2000/svg" data-bbox="145 139.042 866.2 554.723" fill-rule="evenodd" height="607" width="1238" data-type="shape" style=""><rect id="backgroundrect" width="100%" height="100%" x="0" y="0" fill="none" stroke="none" class="" style=""/>
    
<g class="currentLayer" style=""><title>Layer 1</title><g id="svg_1" class="">
        <path d="M944.6460060612408,10.646175168220708 c-0.3986146450042727,0.9675514243815968 -2.7903025150299072,7.6436562526146155 -5.381297707557678,14.803536793038433 c-2.491341531276703,7.159880540423817 -5.082336723804474,13.158699371589716 -5.5806050300598145,13.255454514027875 c-0.597921967506409,0.1935102848763195 -1.2954975962638855,-0.6772859970671178 -1.6941122412681584,-1.9351028487631938 c-1.9930732250213623,-7.933921679929093 -12.357053995132446,-14.803536793038433 -18.136966347694397,-12.09439280476996 c-4.185453772544861,1.9351028487631938 -5.28164404630661,7.256635682861976 -2.491341531276703,12.4814133745226 c2.1923805475234985,3.9669608399645466 2.0927268862724304,5.708553403851422 -0.4982683062553408,5.708553403851422 c-1.3951512575149536,0 -1.8934195637702942,2.515633703392152 -0.7972292900085451,5.2247776916606234 c0.7972292900085451,2.0318579912013535 10.862249076366425,7.546901110176455 14.25047355890274,7.837166537490933 c1.4948049187660217,0.09675514243815979 3.1889171600341797,0.4837757121907985 3.7868391275405884,0.7740411395052775 c1.0961902737617493,0.6772859970671178 -7.673331916332245,34.63834099286116 -9.068483173847198,34.831851277737485 c-0.4982683062553408,0.09675514243815979 -1.793765902519226,-2.2253682760776723 -2.7903025150299072,-5.2247776916606234 c-4.683722078800201,-13.739230226218673 -18.336273670196533,-20.415335054451695 -26.109259247779846,-12.771678801837076 c-3.7868391275405884,3.676695412650068 -4.982683062553406,8.998228246748852 -3.0892634987831116,13.545719941342355 c1.9930732250213623,4.644246837031664 5.28164404630661,7.933921679929093 14.051166236400604,14.319761080847634 c3.7868391275405884,2.8058991307066306 8.47056120634079,6.8696151131093375 10.264327108860016,8.998228246748852 l3.1889171600341797,3.9669608399645466 l-2.491341531276703,10.933331095512045 c-3.487878143787384,15.190557362791068 -5.6802586913108835,23.027723900282005 -6.5771416425704965,23.027723900282005 c-0.4982683062553408,0 -0.9965366125106814,-2.0318579912013535 -1.2954975962638855,-4.644246837031664 c-1.793765902519226,-17.415925638868742 -4.185453772544861,-25.349847318797835 -7.573678255081177,-25.349847318797835 c-1.4948049187660217,0 -2.9896098375320435,-1.8383477063250337 -5.6802586913108835,-6.7728599706711785 c-5.979219675064087,-11.126841380388363 -14.449780881404877,-16.83539478423978 -22.023459136486053,-15.09380222035291 c-2.7903025150299072,0.7740411395052775 -9.965366125106812,7.063125397985656 -8.96882951259613,8.030676822367255 c0.2989609837532046,0.29026542731447935 1.9930732250213623,-0.8707962819434373 3.687185466289521,-2.515633703392152 c5.082336723804474,-4.934512264346143 11.858785688877106,-4.063715982402707 18.4359273314476,2.515633703392152 c5.480951368808746,5.418287976536941 8.47056120634079,11.997637662331801 10.463634431362152,23.027723900282005 c2.590995192527771,13.545719941342355 3.9861464500427246,18.576987348126657 5.5806050300598145,19.931559342260897 c1.4948049187660217,1.161061709257916 1.8934195637702942,9.19173853162517 0.597921967506409,11.223596522826522 c-1.2954975962638855,1.9351028487631938 -6.078873336315155,3.289674842897429 -8.171600222587585,2.2253682760776723 c-0.9965366125106814,-0.4837757121907985 -2.690648853778839,-0.9675514243815968 -3.687185466289521,-0.9675514243815968 c-2.0927268862724304,0 -6.278180658817291,-3.289674842897429 -6.278180658817291,-4.934512264346143 c0,-0.4837757121907985 1.2954975962638855,-0.29026542731447935 2.9896098375320435,0.5805308546289581 c3.1889171600341797,1.6448374214487151 6.377834320068359,1.9351028487631938 5.5806050300598145,0.5805308546289581 c-0.2989609837532046,-0.4837757121907985 -2.491341531276703,-1.8383477063250337 -4.683722078800201,-2.9994094155829503 c-14.449780881404877,-7.256635682861976 -28.799908101558685,-24.285540751978083 -28.799908101558685,-33.96105499579405 c0,-3.676695412650068 2.590995192527771,-6.6761048282330195 5.6802586913108835,-6.6761048282330195 c3.8864927887916565,0 13.453244268894196,4.837757121907984 20.429000556468964,10.352800240883084 c4.384761095046997,3.3864299853355893 8.171600222587585,5.9988188311659005 8.47056120634079,5.708553403851422 c0.9965366125106814,-0.9675514243815968 -1.9930732250213623,-4.547491694593505 -7.474024593830109,-8.90147310431069 c-11.360517382621765,-8.998228246748852 -21.62484449148178,-11.610617092579162 -26.806834876537323,-6.579349685794858 c-2.2920342087745667,2.2253682760776723 -2.491341531276703,2.9994094155829503 -1.9930732250213623,7.740411395052774 c0.7972292900085451,7.837166537490933 4.883029401302338,14.223005938409472 15.34666383266449,24.285540751978083 c5.082336723804474,4.837757121907984 9.267790496349335,9.48200395893965 9.267790496349335,10.256045098444925 c0,2.9994094155829503 7.872639238834381,7.837166537490933 15.84493213891983,9.772269386254127 c2.690648853778839,0.5805308546289581 4.683722078800201,1.6448374214487151 4.7833757400512695,2.515633703392152 c0.7972292900085451,5.9988188311659005 1.4948049187660217,8.707962819434371 2.3916878700256348,8.707962819434371 c1.0961902737617493,0 1.0961902737617493,0 3.388224482536316,-10.159289956006766 c0.896882951259613,-4.257226267279027 2.690648853778839,-11.70737223501732 3.9861464500427246,-16.448374214487146 c1.1958439350128174,-4.837757121907984 3.687185466289521,-15.867843359858187 5.480951368808746,-24.67256132173072 c1.6941122412681584,-8.80471796187253 3.7868391275405884,-17.222415353992425 4.584068417549133,-18.770497633002975 c0.7972292900085451,-1.548082279010555 1.3951512575149536,-4.257226267279027 1.3951512575149536,-6.0955739736040595 c0,-5.031267406784304 11.759132027626038,-48.9581020737088 13.652551591396332,-50.60293949515751 c1.3951512575149536,-1.3545719941342358 1.4948049187660217,-1.257816851696076 0.9965366125106814,0.9675514243815968 c-0.2989609837532046,1.3545719941342358 -1.8934195637702942,9.19173853162517 -3.687185466289521,17.415925638868742 c-1.6941122412681584,8.224187107243573 -7.3743709325790405,33.86429985335589 -12.556361317634583,56.98877889607605 c-5.181990385055542,23.12447904272016 -9.168136835098267,42.18524210303762 -8.96882951259613,42.4755075303521 c0.7972292900085451,0.6772859970671178 0.7972292900085451,0.6772859970671178 10.56328809261322,-41.41120096353234 c4.982683062553406,-21.57639676370961 9.566751480102539,-41.0241803937797 10.264327108860016,-43.34630381229553 c1.3951512575149536,-4.353981409717186 1.8934195637702942,-4.741001979469825 16.94112241268158,-12.287903089646278 c8.769522190093994,-4.450736552155345 14.150819897651672,-9.288493674063329 16.243546783924103,-14.513271365723952 c5.779912352561951,-14.803536793038433 -12.058093011379242,-17.89970135105954 -22.422073781490326,-3.870205697526387 c-1.793765902519226,2.418878560953992 -3.487878143787384,4.257226267279027 -3.7868391275405884,4.063715982402707 c-0.19930732250213634,-0.29026542731447935 1.793765902519226,-10.352800240883084 4.584068417549133,-22.447193045653044 s5.082336723804474,-22.543948188091207 5.082336723804474,-23.317989327596486 c0,-1.9351028487631938 -1.8934195637702942,-1.6448374214487151 -2.690648853778839,0.29026542731447935 zM922.4232396022526,29.513427943661867 c1.793765902519226,1.257816851696076 4.185453772544861,3.9669608399645466 5.381297707557678,5.9988188311659005 c2.1923805475234985,4.160471124840866 3.388224482536316,14.70678165060027 1.8934195637702942,16.158108787172665 c-1.1958439350128174,1.161061709257916 -12.954975962638855,-11.80412737745548 -14.948049187660217,-16.448374214487146 c-3.0892634987831116,-7.063125397985656 0.9965366125106814,-10.062534813568607 7.673331916332245,-5.708553403851422 zm13.652551591396332,15.480822790105549 c-0.2989609837532046,0.6772859970671178 -0.4982683062553408,0.1935102848763195 -0.4982683062553408,-1.161061709257916 s0.19930732250213634,-1.8383477063250337 0.4982683062553408,-1.257816851696076 c0.19930732250213634,0.6772859970671178 0.19930732250213634,1.8383477063250337 0,2.418878560953992 zm-17.93765902519226,1.7415925638868746 c3.1889171600341797,1.8383477063250337 5.879566013813019,5.515043118975103 4.883029401302338,6.579349685794858 c-1.3951512575149536,1.3545719941342358 -11.06155639886856,-5.90206368872774 -10.06501978635788,-7.6436562526146155 c0.896882951259613,-1.257816851696076 1.5944585800170898,-1.0643065668197567 5.181990385055542,1.0643065668197567 zm41.75488406419754,0.5805308546289581 c3.2885708212852482,3.09616455802111 2.590995192527771,6.289084258480379 -2.2920342087745667,11.223596522826522 c-3.0892634987831116,3.09616455802111 -22.023459136486053,13.835985368656836 -22.920342087745667,12.965189086713398 c-0.19930732250213634,-0.1935102848763195 0.09965366125106817,-2.515633703392152 0.7972292900085451,-5.2247776916606234 c1.1958439350128174,-5.708553403851422 8.769522190093994,-16.158108787172665 14.051166236400604,-19.351028487631936 c4.384761095046997,-2.8058991307066306 7.274717271327972,-2.6123888458303117 10.363980770111084,0.38702056975263904 zm-53.51401609182358,29.89733901339134 c2.0927268862724304,1.9351028487631938 4.584068417549133,4.934512264346143 5.480951368808746,6.6761048282330195 c2.0927268862724304,4.257226267279027 4.7833757400512695,14.70678165060027 4.384761095046997,16.83539478423978 c-0.2989609837532046,1.6448374214487151 -8.769522190093994,-13.739230226218673 -8.769522190093994,-16.06135364473451 c0,-0.5805308546289581 -0.3986146450042727,-1.161061709257916 -0.9965366125106814,-1.161061709257916 c-0.4982683062553408,0 -0.9965366125106814,0.8707962819434373 -0.9965366125106814,1.9351028487631938 c0,1.257816851696076 -0.4982683062553408,1.7415925638868746 -1.4948049187660217,1.3545719941342358 c-2.9896098375320435,-1.161061709257916 -1.3951512575149536,2.8058991307066306 3.0892634987831116,7.740411395052774 c4.883029401302338,5.2247776916606234 9.267790496349335,12.674923659398917 8.071946561336517,13.739230226218673 c-0.3986146450042727,0.38702056975263904 -3.0892634987831116,-1.4513271365723952 -5.979219675064087,-4.063715982402707 s-7.474024593830109,-6.482594543356699 -10.363980770111084,-8.611207676996212 c-6.5771416425704965,-5.031267406784304 -9.267790496349335,-8.90147310431069 -9.267790496349335,-13.448964798904196 c0,-5.031267406784304 3.487878143787384,-8.320942249681732 8.96882951259613,-8.320942249681732 c3.1889171600341797,0 4.7833757400512695,0.6772859970671178 7.872639238834381,3.3864299853355893 zm-6.975756287574768,47.79704036445088 c0.9965366125106814,3.4831851277737487 0.896882951259613,15.190557362791068 -0.09965366125106817,16.158108787172665 c-0.9965366125106814,0.8707962819434373 -4.982683062553406,-18.770497633002975 -4.185453772544861,-20.125069627137215 c0.9965366125106814,-1.548082279010555 3.388224482536316,0.6772859970671178 4.285107433795929,3.9669608399645466 zm3.0892634987831116,36.37993355674804 c0,2.6123888458303117 -0.09965366125106817,2.7091439882684707 -2.3916878700256348,1.8383477063250337 c-1.1958439350128174,-0.4837757121907985 -1.2954975962638855,-0.9675514243815968 -0.4982683062553408,-2.418878560953992 c1.3951512575149536,-2.6123888458303117 2.8899561762809753,-2.322123418515832 2.8899561762809753,0.5805308546289581 z" id="svg_2"/>
        <path d="M926.9076543585506,45.76829187327269 c0.3986146450042727,1.3545719941342358 1.1958439350128174,2.8058991307066306 1.6941122412681584,3.3864299853355893 c0.6975756287574771,0.6772859970671178 0.7972292900085451,0.1935102848763195 0.2989609837532046,-1.4513271365723952 c-0.3986146450042727,-1.3545719941342358 -1.1958439350128174,-2.9026542731447904 -1.6941122412681584,-3.3864299853355893 c-0.6975756287574771,-0.6772859970671178 -0.7972292900085451,-0.1935102848763195 -0.2989609837532046,1.4513271365723952 z" id="svg_3"/>
        <path d="M932.9865276948658,127.04261152132682 c-4.7833757400512695,5.515043118975103 -4.384761095046997,17.125660211554262 0.896882951259613,27.67197073731367 c1.3951512575149536,2.7091439882684707 2.491341531276703,6.0955739736040595 2.491341531276703,7.450145967738296 c0,3.3864299853355893 4.982683062553406,8.224187107243573 13.652551591396332,13.061944229151557 c8.570214867591858,4.934512264346143 10.06501978635788,5.128022549222464 4.883029401302338,0.8707962819434373 c-4.584068417549133,-3.7734505550882274 -4.185453772544861,-5.515043118975103 1.2954975962638855,-5.515043118975103 c5.5806050300598145,0 18.734888315200806,-3.4831851277737487 22.22276645898819,-5.90206368872774 c7.573678255081177,-5.321532834098783 6.776448965072632,-13.061944229151557 -2.491341531276703,-22.834213615405687 c-7.274717271327972,-7.6436562526146155 -14.948049187660217,-9.869024528692286 -21.22622984647751,-6.19232911604222 c-3.687185466289521,2.1286131336395133 -6.4774879813194275,6.385839400918538 -10.961902737617493,16.448374214487146 c-1.793765902519226,4.063715982402707 -3.687185466289521,7.450145967738296 -4.185453772544861,7.6436562526146155 c-1.4948049187660217,0.4837757121907985 -2.9896098375320435,-2.0318579912013535 -5.5806050300598145,-9.675514243815968 c-4.584068417549133,-13.255454514027875 -2.491341531276703,-23.995275324663602 4.683722078800201,-23.995275324663602 c0.7972292900085451,0 3.0892634987831116,1.0643065668197567 5.082336723804474,2.418878560953992 c4.384761095046997,2.9026542731447904 4.982683062553406,2.9994094155829503 3.687185466289521,0.5805308546289581 c-1.1958439350128174,-2.0318579912013535 -6.8761026263237,-4.934512264346143 -9.865712463855743,-4.934512264346143 c-1.0961902737617493,0 -3.1889171600341797,1.3545719941342358 -4.584068417549133,2.9026542731447904 zm32.586747229099274,9.578759101377809 c6.377834320068359,2.418878560953992 15.645624816417694,13.448964798904196 15.645624816417694,18.770497633002975 c0,7.063125397985656 -5.779912352561951,10.159289956006766 -21.425537168979645,11.610617092579162 c-10.961902737617493,0.9675514243815968 -11.161210060119629,0.9675514243815968 -14.350127220153809,-1.3545719941342358 c-2.7903025150299072,-2.0318579912013535 -3.1889171600341797,-2.7091439882684707 -2.690648853778839,-5.515043118975103 c0.19930732250213634,-1.7415925638868746 2.3916878700256348,-6.966370255547497 4.7833757400512695,-11.610617092579162 c5.779912352561951,-11.223596522826522 10.762595415115356,-14.513271365723952 18.03731268644333,-11.900882519893642 z" id="svg_4"/>
        <path d="M876.4829017655102,143.10396516606136 c2.690648853778839,5.321532834098783 16.044239461421967,13.835985368656836 16.044239461421967,10.159289956006766 c0,-0.4837757121907985 -1.1958439350128174,-1.161061709257916 -2.690648853778839,-1.548082279010555 c-2.590995192527771,-0.5805308546289581 -10.264327108860016,-5.9988188311659005 -13.054629623889923,-9.19173853162517 c-1.0961902737617493,-1.257816851696076 -1.1958439350128174,-1.161061709257916 -0.2989609837532046,0.5805308546289581 z" id="svg_5"/>
        <path d="M984.2085095779148,164.77711707220908 c0,0.5805308546289581 1.3951512575149536,2.8058991307066306 2.9896098375320435,5.031267406784304 c4.683722078800201,6.19232911604222 3.7868391275405884,10.159289956006766 -2.9896098375320435,12.771678801837076 c-5.082336723804474,1.9351028487631938 -13.353590607643127,2.0318579912013535 -18.934195637702942,0.09675514243815979 c-5.082336723804474,-1.7415925638868746 -5.28164404630661,-1.7415925638868746 -4.384761095046997,-0.38702056975263904 c1.3951512575149536,2.322123418515832 9.666405141353607,4.934512264346143 15.34666383266449,4.934512264346143 c9.666405141353607,0 16.94112241268158,-4.837757121907984 16.94112241268158,-11.223596522826522 c0,-3.676695412650068 -5.28164404630661,-12.191147947208119 -7.474024593830109,-12.191147947208119 c-0.7972292900085451,0 -1.4948049187660217,0.4837757121907985 -1.4948049187660217,0.9675514243815968 z" id="svg_6"/>
        <path d="M864.9230770603863,168.357057342421 c-6.078873336315155,1.3545719941342358 -13.25393694639206,5.9988188311659005 -13.25393694639206,8.611207676996212 c0,0.8707962819434373 1.1958439350128174,0.1935102848763195 3.2885708212852482,-1.7415925638868746 c6.8761026263237,-6.6761048282330195 21.12657618522644,-8.611207676996212 31.091942310333252,-4.257226267279027 c2.8899561762809753,1.3545719941342358 5.5806050300598145,2.9026542731447904 5.979219675064087,3.3864299853355893 c0.2989609837532046,0.5805308546289581 1.0961902737617493,1.0643065668197567 1.6941122412681584,1.0643065668197567 c1.8934195637702942,0 -1.3951512575149536,-2.9994094155829503 -5.480951368808746,-4.934512264346143 c-5.480951368808746,-2.7091439882684707 -15.944585800170898,-3.676695412650068 -23.31895673274994,-2.1286131336395133 z" id="svg_7"/>
        <path d="M485.7408960000721,172.61428360970007 c-1.6941122412681584,0.8707962819434373 -1.793765902519226,8.707962819434371 -1.793765902519226,142.42356966897103 c-0.09965366125106817,101.20587899031501 -0.3986146450042727,140.97224253239864 -1.0961902737617493,139.7144256807026 c-1.2954975962638855,-2.2253682760776723 -11.360517382621765,-28.639522161695268 -43.7479572892189,-115.81590549847714 c-4.883029401302338,-13.061944229151557 -12.257400333881378,-32.89674842897429 -16.44285410642624,-44.023589809362655 c-4.185453772544861,-11.223596522826522 -10.463634431362152,-27.962236164628145 -13.951512575149536,-37.25072983869148 c-3.487878143787384,-9.288493674063329 -10.862249076366425,-29.123297873886067 -16.44285410642624,-44.023589809362655 c-5.5806050300598145,-14.900291935476591 -11.161210060119629,-29.89733901339134 -12.257400333881378,-33.28376899872693 l-2.1923805475234985,-6.19232911604222 l-8.47056120634079,0.6772859970671178 c-22.72103476524353,1.548082279010555 -43.4489963054657,12.4814133745226 -54.90916734933853,28.736277304133424 c-3.8864927887916565,5.611798261413262 -10.662941753864288,19.544538772508254 -16.044239461421967,33.28376899872693 c-1.6941122412681584,4.257226267279027 -3.388224482536316,8.127431964805414 -3.7868391275405884,8.707962819434371 c-0.3986146450042727,0.4837757121907985 -1.4948049187660217,3.3864299853355893 -2.491341531276703,6.289084258480379 s-4.384761095046997,12.09439280476996 -7.573678255081177,20.318579912013533 c-3.1889171600341797,8.224187107243573 -8.669868528842926,22.834213615405687 -12.257400333881378,32.41297271678349 c-3.487878143787384,9.578759101377809 -10.363980770111084,27.86548102218999 -15.047702848911285,40.637159824027066 c-4.7833757400512695,12.771678801837076 -13.154283285140991,34.92860642017565 -18.4359273314476,49.34512264346144 c-5.381297707557678,14.319761080847634 -13.552897930145264,36.089668129433555 -18.236620008945465,48.37757121907984 c-4.683722078800201,12.191147947208119 -11.65947836637497,30.671380152896617 -15.545971155166626,40.92742525134154 c-3.8864927887916565,10.256045098444925 -8.171600222587585,21.189376193956967 -9.467097818851471,24.18878560953992 c-1.3951512575149536,2.9994094155829503 -4.584068417549133,10.739820810635724 -7.075409948825836,17.125660211554262 s-5.181990385055542,13.061944229151557 -5.979219675064087,14.803536793038433 c-0.7972292900085451,1.7415925638868746 -1.4948049187660217,3.5799402702119085 -1.4948049187660217,4.160471124840866 c0,0.5805308546289581 8.96882951259613,0.7740411395052775 24.514800667762756,0.6772859970671178 l24.614454329013824,-0.29026542731447935 l8.669868528842926,-25.156337033921517 c10.762595415115356,-31.348666149963734 19.332810282707214,-55.053676047312855 21.923805475234985,-60.85898459360244 l1.8934195637702942,-4.450736552155345 h173.59667789936066 l1.3951512575149536,3.09616455802111 c1.793765902519226,4.353981409717186 15.745278477668762,43.05603838498106 20.6283078789711,57.375799465828685 c2.1923805475234985,6.385839400918538 5.480951368808746,15.77108821742003 7.274717271327972,20.80235562420433 l3.2885708212852482,9.19173853162517 l10.762595415115356,0.7740411395052775 c11.858785688877106,0.8707962819434373 44.34587925672531,0.38702056975263904 46.13964515924454,-0.6772859970671178 c0.7972292900085451,-0.4837757121907985 1.0961902737617493,-52.24777691660623 1.0961902737617493,-186.93093519052448 V171.5499770428803 h-19.63177126646042 c-11.559824705123901,0 -20.429000556468964,0.4837757121907985 -21.425537168979645,1.0643065668197567 zM356.3904436961857,238.50453561008675 c9.068483173847198,24.092030467101758 11.260863721370697,29.9940941558295 26.806834876537323,71.88907083155264 c7.673331916332245,20.70560048176617 19.133502960205078,51.667246061977266 25.41168361902237,68.69615113109337 c6.377834320068359,17.028905069116107 11.559824705123901,31.54217643484006 11.559824705123901,32.12270728946902 c0,1.9351028487631938 -140.3123550415039,1.8383477063250337 -141.10958433151245,-0.09675514243815979 c-0.2989609837532046,-0.6772859970671178 1.2954975962638855,-5.9988188311659005 3.487878143787384,-11.80412737745548 c5.879566013813019,-15.57757793254371 33.085015535354614,-88.82122075823058 41.455923080444336,-111.65543437363628 c22.521727442741394,-61.05249487847876 24.31549334526062,-65.79349685794858 25.3120299577713,-65.79349685794858 c0.3986146450042727,0 3.587531805038452,7.546901110176455 7.075409948825836,16.641884499363464 z" id="svg_8"/>
        <path d="M554.9005369083134,172.4207733248237 c-2.0927268862724304,1.257816851696076 -0.4982683062553408,5.805308546289581 14.350127220153809,41.41120096353234 c2.9896098375320435,6.966370255547497 7.772985577583313,19.157518202755618 10.762595415115356,27.09143988268471 c2.9896098375320435,7.837166537490933 9.566751480102539,25.156337033921517 14.549434542655945,38.50854669038755 c5.082336723804474,13.255454514027875 13.552897930145264,35.896157844557244 18.934195637702942,50.312674067843034 C638.5099586979595,396.9894589237923 652.9597395793644,435.6915158990562 659.2379202381817,452.1398901135434 c7.175063610076904,18.9640079178793 14.449780881404877,38.315036405511236 26.40822023153305,70.63125397985657 l7.3743709325790405,19.834804199822734 l6.278180658817291,0.29026542731447935 c18.53558099269867,0.8707962819434373 42.85107433795929,-9.385248816501488 54.90916734933853,-23.221234185158323 c6.278180658817291,-7.063125397985656 14.051166236400604,-20.608845339328013 17.638698041439056,-30.671380152896617 c1.6941122412681584,-4.547491694593505 3.9861464500427246,-9.965779671130448 5.082336723804474,-11.997637662331801 c1.1958439350128174,-2.0318579912013535 2.690648853778839,-5.321532834098783 3.388224482536316,-7.256635682861976 c4.085800111293793,-11.030086237950204 7.872639238834381,-18.67374249056482 8.769522190093994,-17.415925638868742 c0.6975756287574771,0.8707962819434373 0.7972292900085451,0.6772859970671178 0.4982683062553408,-0.9675514243815968 c-0.2989609837532046,-1.161061709257916 -0.09965366125106817,-1.9351028487631938 0.3986146450042727,-1.548082279010555 c0.4982683062553408,0.29026542731447935 0.896882951259613,-0.6772859970671178 0.896882951259613,-2.0318579912013535 c0,-3.870205697526387 3.0892634987831116,-12.09439280476996 4.484414756298065,-12.09439280476996 c0.896882951259613,0 0.6975756287574771,1.4513271365723952 -0.6975756287574771,5.515043118975103 c-0.9965366125106814,3.09616455802111 -2.0927268862724304,7.256635682861976 -2.491341531276703,9.19173853162517 l-0.597921967506409,3.676695412650068 H963.2812407151905 l1.4948049187660217,3.4831851277737487 c2.0927268862724304,4.934512264346143 12.357053995132446,33.38052414116509 22.322420120239258,62.31031173017484 l8.570214867591858,24.67256132173072 l24.31549334526062,0.29026542731447935 l24.215839684009552,0.1935102848763195 l-0.4982683062553408,-2.1286131336395133 c-0.4982683062553408,-2.322123418515832 -10.06501978635788,-26.414153885617594 -16.143893122673035,-40.637159824027066 c-1.9930732250213623,-4.644246837031664 -5.979219675064087,-14.900291935476591 -8.96882951259613,-22.737458472967525 c-2.8899561762809753,-7.933921679929093 -9.168136835098267,-24.575806179292556 -13.951512575149536,-37.05721955381515 c-8.47056120634079,-22.447193045653044 -14.649088203907013,-38.992322402578345 -44.146571934223175,-118.04127377455481 c-8.271253883838654,-22.06017247590041 -17.040776073932648,-45.57167208837321 -19.63177126646042,-52.24777691660623 c-7.872639238834381,-20.415335054451695 -13.453244268894196,-36.089668129433555 -13.453244268894196,-37.83126069332044 c0,-0.8707962819434373 1.2954975962638855,-4.160471124840866 2.9896098375320435,-7.256635682861976 c7.274717271327972,-14.029495653533154 0.6975756287574771,-27.478460452437346 -15.047702848911285,-30.76813529533478 c-3.7868391275405884,-0.7740411395052775 -4.484414756298065,-3.289674842897429 -1.1958439350128174,-4.547491694593505 c1.9930732250213623,-0.6772859970671178 3.388224482536316,-0.4837757121907985 6.4774879813194275,1.0643065668197567 c5.5806050300598145,2.8058991307066306 15.545971155166626,2.7091439882684707 21.026922523975372,-0.29026542731447935 c5.181990385055542,-2.7091439882684707 9.467097818851471,-11.320351665264681 5.779912352561951,-11.320351665264681 c-0.4982683062553408,0 -1.0961902737617493,0.7740411395052775 -1.3951512575149536,1.8383477063250337 c-0.6975756287574771,2.8058991307066306 -9.068483173847198,7.740411395052774 -14.848395526409151,8.90147310431069 c-6.676795303821564,1.257816851696076 -10.762595415115356,0 -10.762595415115356,-3.289674842897429 c0,-3.4831851277737487 6.377834320068359,-7.159880540423817 15.147356510162354,-8.707962819434371 c7.274717271327972,-1.257816851696076 7.274717271327972,-1.257816851696076 3.9861464500427246,-2.418878560953992 c-2.590995192527771,-0.8707962819434373 -4.185453772544861,-0.8707962819434373 -7.175063610076904,0.1935102848763195 c-5.381297707557678,1.7415925638868746 -12.755668640136719,6.19232911604222 -14.25047355890274,8.41769739211989 c-1.4948049187660217,2.322123418515832 -7.673331916332245,2.6123888458303117 -7.673331916332245,0.38702056975263904 c0,-2.6123888458303117 -2.690648853778839,-1.548082279010555 -11.559824705123901,4.934512264346143 c-4.883029401302338,3.4831851277737487 -9.068483173847198,6.579349685794858 -9.367444157600403,6.8696151131093375 c-0.19930732250213634,0.1935102848763195 1.9930732250213623,0.09675514243815979 4.982683062553406,-0.1935102848763195 l5.480951368808746,-0.5805308546289581 l-4.384761095046997,2.0318579912013535 c-5.979219675064087,2.7091439882684707 -4.384761095046997,3.676695412650068 1.8934195637702942,1.0643065668197567 c16.94112241268158,-7.063125397985656 33.88224482536316,0.1935102848763195 33.88224482536316,14.610026508162111 c0,7.159880540423817 -10.56328809261322,23.221234185158323 -17.240083396434784,26.31739874317943 c-3.587531805038452,1.548082279010555 -3.687185466289521,1.548082279010555 -12.556361317634583,-1.8383477063250337 c-9.865712463855743,-3.676695412650068 -17.339737057685852,-4.450736552155345 -18.4359273314476,-1.9351028487631938 c-0.597921967506409,1.7415925638868746 0.09965366125106817,2.0318579912013535 6.5771416425704965,2.9026542731447904 c2.590995192527771,0.29026542731447935 6.776448965072632,1.6448374214487151 9.267790496349335,2.9994094155829503 c5.381297707557678,2.7091439882684707 12.058093011379242,3.09616455802111 16.642161428928375,0.7740411395052775 l3.1889171600341797,-1.548082279010555 l3.7868391275405884,3.870205697526387 c4.484414756298065,4.741001979469825 5.082336723804474,9.09498338918701 1.6941122412681584,12.674923659398917 c-3.8864927887916565,4.063715982402707 -8.47056120634079,5.2247776916606234 -19.63177126646042,5.031267406784304 c-12.257400333881378,-0.1935102848763195 -16.044239461421967,-1.6448374214487151 -21.525190830230713,-8.224187107243573 c-1.9930732250213623,-2.322123418515832 -4.982683062553406,-4.741001979469825 -6.5771416425704965,-5.418287976536941 c-1.6941122412681584,-0.6772859970671178 -2.9896098375320435,-1.548082279010555 -2.9896098375320435,-1.9351028487631938 c0,-0.38702056975263904 1.793765902519226,-1.4513271365723952 3.9861464500427246,-2.418878560953992 s3.9861464500427246,-2.322123418515832 3.9861464500427246,-3.09616455802111 c0,-1.6448374214487151 -0.2989609837532046,-1.548082279010555 -5.979219675064087,0.38702056975263904 c-6.178526997566223,2.1286131336395133 -11.161210060119629,0.7740411395052775 -16.741815090179443,-4.547491694593505 c-5.480951368808746,-5.128022549222464 -8.171600222587585,-10.449555383321247 -8.171600222587585,-16.158108787172665 c0,-5.321532834098783 1.8934195637702942,-8.611207676996212 5.6802586913108835,-10.062534813568607 c4.484414756298065,-1.6448374214487151 1.6941122412681584,-2.0318579912013535 -5.5806050300598145,-0.8707962819434373 c-4.883029401302338,0.7740411395052775 -7.075409948825836,1.548082279010555 -7.075409948825836,2.515633703392152 c0,1.7415925638868746 0.4982683062553408,1.7415925638868746 3.587531805038452,-0.1935102848763195 c3.1889171600341797,-2.1286131336395133 4.085800111293793,-1.0643065668197567 1.8934195637702942,2.1286131336395133 c-1.2954975962638855,1.9351028487631938 -1.5944585800170898,3.870205697526387 -1.2954975962638855,7.837166537490933 c0.4982683062553408,5.2247776916606234 0.3986146450042727,5.2247776916606234 -1.9930732250213623,4.644246837031664 c-3.487878143787384,-0.8707962819434373 -13.552897930145264,-7.6436562526146155 -15.446317493915558,-10.546310525759406 c-0.896882951259613,-1.257816851696076 -2.0927268862724304,-4.160471124840866 -2.590995192527771,-6.385839400918538 s-1.1958439350128174,-4.257226267279027 -1.4948049187660217,-4.547491694593505 c-0.9965366125106814,-0.9675514243815968 -0.6975756287574771,3.7734505550882274 0.4982683062553408,7.837166537490933 c1.0961902737617493,3.7734505550882274 0.597921967506409,8.611207676996212 -0.9965366125106814,11.030086237950204 c-0.597921967506409,1.0643065668197567 -1.8934195637702942,0.5805308546289581 -5.779912352561951,-2.1286131336395133 c-8.47056120634079,-5.90206368872774 -14.848395526409151,-7.6436562526146155 -19.233156621456146,-5.418287976536941 c-2.3916878700256348,1.257816851696076 -1.5944585800170898,3.4831851277737487 1.8934195637702942,5.321532834098783 c6.676795303821564,3.289674842897429 11.559824705123901,10.062534813568607 7.3743709325790405,10.159289956006766 c-3.388224482536316,0.09675514243815979 -6.278180658817291,2.515633703392152 -10.862249076366425,9.19173853162517 c-6.278180658817291,9.19173853162517 -7.772985577583313,13.739230226218673 -6.377834320068359,18.770497633002975 c1.2954975962638855,4.934512264346143 4.185453772544861,6.8696151131093375 9.965366125106812,6.8696151131093375 c4.7833757400512695,0 13.353590607643127,-2.2253682760776723 15.545971155166626,-3.9669608399645466 c1.0961902737617493,-0.8707962819434373 1.3951512575149536,-0.8707962819434373 1.3951512575149536,0 c0,0.5805308546289581 -0.7972292900085451,1.4513271365723952 -1.6941122412681584,1.7415925638868746 c-0.9965366125106814,0.38702056975263904 -3.2885708212852482,1.6448374214487151 -4.982683062553406,2.9994094155829503 c-1.793765902519226,1.257816851696076 -3.8864927887916565,2.1286131336395133 -4.7833757400512695,1.8383477063250337 c-0.7972292900085451,-0.38702056975263904 -2.690648853778839,0.38702056975263904 -4.185453772544861,1.6448374214487151 c-8.47056120634079,6.8696151131093375 -17.638698041439056,7.546901110176455 -21.425537168979645,1.6448374214487151 c-1.9930732250213623,-3.09616455802111 -3.0892634987831116,-2.418878560953992 -1.2954975962638855,0.7740411395052775 c0.7972292900085451,1.548082279010555 2.7903025150299072,3.3864299853355893 4.484414756298065,4.160471124840866 c1.5944585800170898,0.6772859970671178 2.9896098375320435,1.4513271365723952 2.9896098375320435,1.7415925638868746 c0,0.29026542731447935 -1.2954975962638855,1.257816851696076 -2.8899561762809753,2.2253682760776723 c-3.2885708212852482,1.8383477063250337 -9.467097818851471,8.320942249681732 -8.669868528842926,9.09498338918701 c0.2989609837532046,0.29026542731447935 2.7903025150299072,-1.4513271365723952 5.6802586913108835,-3.870205697526387 c3.0892634987831116,-2.6123888458303117 8.869175851345062,-5.9988188311659005 14.649088203907013,-8.41769739211989 c8.570214867591858,-3.676695412650068 10.06501978635788,-4.063715982402707 15.745278477668762,-3.676695412650068 c7.474024593830109,0.4837757121907985 9.965366125106812,2.2253682760776723 10.862249076366425,7.6436562526146155 l0.6975756287574771,3.7734505550882274 l1.8934195637702942,-2.322123418515832 c0.9965366125106814,-1.257816851696076 1.8934195637702942,-2.7091439882684707 1.8934195637702942,-3.192919700459269 c0,-0.38702056975263904 0.896882951259613,-1.8383477063250337 1.9930732250213623,-3.192919700459269 s1.9930732250213623,-3.192919700459269 1.9930732250213623,-4.160471124840866 c0,-3.5799402702119085 14.150819897651672,-16.158108787172665 18.136966347694397,-16.158108787172665 c1.4948049187660217,0 1.793765902519226,0.4837757121907985 1.2954975962638855,2.1286131336395133 c-0.597921967506409,1.8383477063250337 -0.4982683062553408,2.0318579912013535 0.597921967506409,0.9675514243815968 c1.9930732250213623,-1.8383477063250337 11.858785688877106,-1.4513271365723952 16.143893122673035,0.6772859970671178 c1.9930732250213623,0.9675514243815968 3.687185466289521,1.4513271365723952 3.687185466289521,0.9675514243815968 c0,-1.3545719941342358 -6.178526997566223,-4.741001979469825 -8.669868528842926,-4.741001979469825 c-1.1958439350128174,0 -2.491341531276703,-0.4837757121907985 -2.8899561762809753,-1.161061709257916 c-0.896882951259613,-1.3545719941342358 4.883029401302338,-6.19232911604222 8.171600222587585,-6.8696151131093375 c2.8899561762809753,-0.4837757121907985 7.972292900085449,2.7091439882684707 11.65947836637497,7.450145967738296 c1.4948049187660217,1.8383477063250337 5.28164404630661,4.837757121907984 8.370907545089722,6.579349685794858 c5.181990385055542,2.9994094155829503 5.779912352561951,3.676695412650068 7.972292900085449,9.48200395893965 c6.377834320068359,17.415925638868742 35.57635706663132,96.27136672596887 45.242762207984924,122.00823461451935 c2.690648853778839,7.159880540423817 4.883029401302338,13.642475083780514 4.883029401302338,14.223005938409472 c0,0.8707962819434373 -3.9861464500427246,1.161061709257916 -14.549434542655945,1.161061709257916 c-13.652551591396332,0 -14.549434542655945,-0.09675514243815979 -15.047702848911285,-1.9351028487631938 c-0.6975756287574771,-2.7091439882684707 -1.6941122412681584,-2.418878560953992 -2.9896098375320435,0.8707962819434373 c-1.4948049187660217,3.9669608399645466 -5.28164404630661,5.9988188311659005 -11.958439350128174,6.482594543356699 c-4.7833757400512695,0.38702056975263904 -6.676795303821564,0.09675514243815979 -10.762595415115356,-1.9351028487631938 l-4.982683062553406,-2.322123418515832 l6.278180658817291,-0.09675514243815979 c4.584068417549133,-0.09675514243815979 6.178526997566223,-0.38702056975263904 5.879566013813019,-1.3545719941342358 c-0.19930732250213634,-0.5805308546289581 0.4982683062553408,-2.418878560953992 1.5944585800170898,-3.870205697526387 c2.7903025150299072,-3.870205697526387 3.1889171600341797,-10.062534813568607 0.9965366125106814,-14.223005938409472 c-2.2920342087745667,-4.160471124840866 -9.068483173847198,-9.288493674063329 -14.25047355890274,-10.643065668197565 c-3.487878143787384,-0.9675514243815968 -3.9861464500427246,-1.3545719941342358 -3.9861464500427246,-3.9669608399645466 c0,-2.2253682760776723 -0.597921967506409,-3.09616455802111 -2.590995192527771,-3.870205697526387 c-1.4948049187660217,-0.4837757121907985 -3.587531805038452,-0.6772859970671178 -4.584068417549133,-0.29026542731447935 c-1.6941122412681584,0.4837757121907985 -1.8934195637702942,1.161061709257916 -1.4948049187660217,3.7734505550882274 c0.4982683062553408,2.9994094155829503 0.2989609837532046,3.192919700459269 -2.7903025150299072,3.7734505550882274 c-1.793765902519226,0.38702056975263904 -3.8864927887916565,1.3545719941342358 -4.584068417549133,2.2253682760776723 c-1.1958439350128174,1.3545719941342358 -0.9965366125106814,1.4513271365723952 2.0927268862724304,0.6772859970671178 c5.381297707557678,-1.3545719941342358 14.25047355890274,-0.9675514243815968 19.133502960205078,0.8707962819434373 c12.755668640136719,4.741001979469825 15.84493213891983,18.18996677837402 5.082336723804474,22.543948188091207 c-2.0927268862724304,0.8707962819434373 -4.683722078800201,1.257816851696076 -6.377834320068359,0.8707962819434373 c-2.0927268862724304,-0.4837757121907985 -3.0892634987831116,-0.1935102848763195 -3.487878143787384,0.8707962819434373 c-0.4982683062553408,1.3545719941342358 -2.9896098375320435,1.548082279010555 -17.43939071893692,1.548082279010555 c-15.34666383266449,0 -16.84146875143051,-0.1935102848763195 -16.84146875143051,-1.7415925638868746 c0,-0.8707962819434373 -0.6975756287574771,-2.9026542731447904 -1.4948049187660217,-4.450736552155345 c-1.793765902519226,-3.192919700459269 -1.4948049187660217,-3.7734505550882274 2.491341531276703,-5.418287976536941 c1.5944585800170898,-0.6772859970671178 2.9896098375320435,-1.548082279010555 2.9896098375320435,-2.0318579912013535 c0,-1.3545719941342358 -1.6941122412681584,-1.0643065668197567 -5.879566013813019,0.9675514243815968 c-2.1923805475234985,1.161061709257916 -4.285107433795929,1.548082279010555 -5.082336723804474,1.0643065668197567 c-0.896882951259613,-0.5805308546289581 -0.19930732250213634,-1.3545719941342358 2.590995192527771,-2.8058991307066306 c2.9896098375320435,-1.4513271365723952 3.388224482536316,-1.9351028487631938 1.793765902519226,-2.0318579912013535 c-1.1958439350128174,0 -3.687185466289521,0.5805308546289581 -5.480951368808746,1.3545719941342358 c-1.8934195637702942,0.7740411395052775 -7.175063610076904,1.6448374214487151 -11.759132027626038,2.1286131336395133 c-6.676795303821564,0.4837757121907985 -8.071946561336517,0.8707962819434373 -6.8761026263237,1.7415925638868746 c1.3951512575149536,0.9675514243815968 1.3951512575149536,1.3545719941342358 -0.3986146450042727,3.3864299853355893 c-2.9896098375320435,3.676695412650068 -0.4982683062553408,5.031267406784304 3.0892634987831116,1.6448374214487151 c5.480951368808746,-5.128022549222464 14.948049187660217,-4.353981409717186 18.4359273314476,1.4513271365723952 c1.5944585800170898,2.7091439882684707 1.5944585800170898,3.09616455802111 0.19930732250213634,5.2247776916606234 c-2.9896098375320435,4.450736552155345 -7.175063610076904,5.708553403851422 -17.43939071893692,5.611798261413262 c-11.958439350128174,-0.29026542731447935 -14.848395526409151,0.8707962819434373 -22.8206884264946,9.19173853162517 c-5.879566013813019,5.9988188311659005 -6.178526997566223,6.19232911604222 -4.484414756298065,2.8058991307066306 c1.5944585800170898,-3.5799402702119085 1.6941122412681584,-3.870205697526387 0.09965366125106817,-4.934512264346143 c-1.5944585800170898,-1.0643065668197567 -1.2954975962638855,-1.548082279010555 2.2920342087745667,-5.031267406784304 c7.573678255081177,-7.159880540423817 13.7522052526474,-20.80235562420433 13.851858913898468,-30.381114725582137 c0,-2.0318579912013535 1.3951512575149536,-6.0955739736040595 3.587531805038452,-9.965779671130448 c3.7868391275405884,-6.966370255547497 7.872639238834381,-19.4477836300701 8.96882951259613,-27.478460452437346 c0.4982683062553408,-4.257226267279027 0.19930732250213634,-5.708553403851422 -2.1923805475234985,-10.643065668197565 c-1.4948049187660217,-3.09616455802111 -3.0892634987831116,-6.6761048282330195 -3.388224482536316,-8.030676822367255 c-0.2989609837532046,-1.257816851696076 -1.4948049187660217,-2.9026542731447904 -2.7903025150299072,-3.4831851277737487 c-3.687185466289521,-1.7415925638868746 -3.587531805038452,-2.0318579912013535 1.2954975962638855,-4.160471124840866 c6.278180658817291,-2.7091439882684707 6.4774879813194275,-2.6123888458303117 5.381297707557678,1.4513271365723952 c-1.1958439350128174,4.063715982402707 -0.2989609837532046,9.09498338918701 1.5944585800170898,9.09498338918701 c0.896882951259613,0 1.2954975962638855,-1.6448374214487151 1.2954975962638855,-5.708553403851422 c0,-6.289084258480379 2.590995192527771,-12.191147947208119 6.377834320068359,-14.513271365723952 c2.7903025150299072,-1.7415925638868746 3.388224482536316,-0.5805308546289581 1.1958439350128174,2.515633703392152 c-2.9896098375320435,4.257226267279027 -4.384761095046997,8.030676822367255 -4.384761095046997,11.610617092579162 c0,5.2247776916606234 2.0927268862724304,3.3864299853355893 4.085800111293793,-3.4831851277737487 c2.7903025150299072,-10.062534813568607 4.285107433795929,-11.320351665264681 15.84493213891983,-13.061944229151557 c1.8934195637702942,-0.38702056975263904 4.883029401302338,-1.4513271365723952 6.676795303821564,-2.418878560953992 c4.683722078800201,-2.8058991307066306 20.03038591146469,-21.769907048585928 21.22622984647751,-26.31739874317943 c1.2954975962638855,-4.547491694593505 0.3986146450042727,-11.900882519893642 -1.6941122412681584,-13.545719941342355 c-2.2920342087745667,-1.9351028487631938 -8.370907545089722,-1.161061709257916 -12.15774667263031,1.4513271365723952 c-3.7868391275405884,2.6123888458303117 -5.181990385055542,2.515633703392152 -4.384761095046997,-0.29026542731447935 c0.2989609837532046,-1.161061709257916 -0.597921967506409,-2.9994094155829503 -2.491341531276703,-5.031267406784304 c-3.487878143787384,-3.7734505550882274 -5.28164404630661,-3.3864299853355893 -2.1923805475234985,0.38702056975263904 c2.7903025150299072,3.3864299853355893 2.491341531276703,7.063125397985656 -0.9965366125106814,11.320351665264681 c-2.9896098375320435,3.676695412650068 -3.7868391275405884,5.805308546289581 -2.0927268862724304,5.805308546289581 c0.4982683062553408,0 1.793765902519226,-1.0643065668197567 2.7903025150299072,-2.2253682760776723 c0.9965366125106814,-1.257816851696076 4.584068417549133,-4.160471124840866 7.872639238834381,-6.385839400918538 c4.7833757400512695,-3.192919700459269 6.8761026263237,-4.063715982402707 9.467097818851471,-3.7734505550882274 c2.7903025150299072,0.1935102848763195 3.487878143787384,0.7740411395052775 4.285107433795929,3.4831851277737487 c1.2954975962638855,4.547491694593505 -0.4982683062553408,9.385248816501488 -6.377834320068359,16.351619072048983 c-5.979219675064087,7.159880540423817 -22.621381103992462,18.480232205688502 -28.60060077905655,19.351028487631936 l-3.7868391275405884,0.5805308546289581 l4.085800111293793,-4.741001979469825 c6.4774879813194275,-7.450145967738296 8.370907545089722,-11.030086237950204 8.370907545089722,-15.77108821742003 c0,-5.031267406784304 -3.487878143787384,-11.513861950141004 -7.872639238834381,-14.513271365723952 c-4.883029401302338,-3.3864299853355893 -5.6802586913108835,-2.2253682760776723 -1.3951512575149536,2.0318579912013535 c2.1923805475234985,2.322123418515832 4.584068417549133,5.128022549222464 5.181990385055542,6.289084258480379 c1.8934195637702942,3.676695412650068 1.2954975962638855,9.385248816501488 -1.4948049187660217,13.448964798904196 c-2.9896098375320435,4.257226267279027 -7.3743709325790405,9.09498338918701 -8.47056120634079,9.09498338918701 c-0.2989609837532046,0 -0.896882951259613,-2.0318579912013535 -1.1958439350128174,-4.547491694593505 c-0.896882951259613,-8.030676822367255 -7.175063610076904,-11.030086237950204 -14.649088203907013,-7.256635682861976 c-10.06501978635788,5.128022549222464 -20.429000556468964,11.126841380388363 -21.12657618522644,12.09439280476996 c-0.4982683062553408,0.7740411395052775 -2.491341531276703,-0.7740411395052775 -5.979219675064087,-4.450736552155345 c-3.587531805038452,-3.676695412650068 -6.178526997566223,-5.515043118975103 -7.673331916332245,-5.515043118975103 c-2.0927268862724304,0 -1.793765902519226,0.5805308546289581 2.9896098375320435,5.611798261413262 c4.185453772544861,4.353981409717186 5.879566013813019,7.159880540423817 7.673331916332245,12.287903089646278 c1.1958439350128174,3.7734505550882274 2.1923805475234985,7.353390825300135 2.1923805475234985,7.933921679929093 c0,2.322123418515832 -2.9896098375320435,1.257816851696076 -4.484414756298065,-1.6448374214487151 c-1.4948049187660217,-2.8058991307066306 -4.484414756298065,-4.063715982402707 -4.484414756298065,-1.8383477063250337 c0,0.5805308546289581 -0.896882951259613,0.7740411395052775 -1.9930732250213623,0.38702056975263904 c-2.0927268862724304,-0.6772859970671178 -2.690648853778839,0.38702056975263904 -0.9965366125106814,2.0318579912013535 c1.4948049187660217,1.4513271365723952 -3.7868391275405884,14.900291935476591 -5.779912352561951,14.900291935476591 c-0.7972292900085451,0 -4.982683062553406,-0.6772859970671178 -9.267790496349335,-1.548082279010555 c-7.175063610076904,-1.3545719941342358 -8.271253883838654,-1.3545719941342358 -13.353590607643127,0.09675514243815979 c-7.274717271327972,2.0318579912013535 -12.65601497888565,7.159880540423817 -15.047702848911285,14.319761080847634 c-1.793765902519226,5.708553403851422 -1.4948049187660217,8.90147310431069 1.4948049187660217,12.38465823208444 c2.590995192527771,3.09616455802111 3.8864927887916565,1.548082279010555 1.793765902519226,-1.9351028487631938 c-2.0927268862724304,-3.4831851277737487 -2.1923805475234985,-5.805308546289581 -0.19930732250213634,-8.41769739211989 c0.7972292900085451,-1.161061709257916 1.2954975962638855,-3.289674842897429 1.1958439350128174,-4.741001979469825 c-0.19930732250213634,-2.0318579912013535 0.6975756287574771,-3.289674842897429 3.587531805038452,-5.611798261413262 c3.388224482536316,-2.7091439882684707 4.683722078800201,-3.09616455802111 11.360517382621765,-3.3864299853355893 c7.972292900085449,-0.4837757121907985 11.559824705123901,0.8707962819434373 7.972292900085449,2.9026542731447904 c-1.0961902737617493,0.4837757121907985 -2.491341531276703,2.418878560953992 -3.2885708212852482,4.160471124840866 c-1.9930732250213623,4.741001979469825 -0.19930732250213634,9.48200395893965 5.779912352561951,15.190557362791068 c3.587531805038452,3.3864299853355893 4.7833757400512695,5.031267406784304 3.9861464500427246,5.805308546289581 c-0.7972292900085451,0.7740411395052775 -2.0927268862724304,0.1935102848763195 -4.584068417549133,-1.8383477063250337 c-3.2885708212852482,-2.9026542731447904 -16.044239461421967,-7.837166537490933 -17.240083396434784,-6.6761048282330195 c-0.2989609837532046,0.29026542731447935 2.7903025150299072,2.0318579912013535 6.776448965072632,3.870205697526387 c4.085800111293793,1.7415925638868746 8.869175851345062,4.353981409717186 10.762595415115356,5.805308546289581 c3.0892634987831116,2.2253682760776723 3.587531805038452,2.322123418515832 5.082336723804474,1.0643065668197567 c2.3916878700256348,-2.1286131336395133 2.9896098375320435,-1.8383477063250337 2.9896098375320435,1.3545719941342358 c0,2.2253682760776723 0.597921967506409,2.9994094155829503 2.8899561762809753,3.7734505550882274 c5.181990385055542,1.7415925638868746 4.982683062553406,8.707962819434371 -0.4982683062553408,18.576987348126657 c-1.4948049187660217,2.6123888458303117 -2.3916878700256348,5.128022549222464 -2.0927268862724304,5.418287976536941 c0.3986146450042727,0.38702056975263904 1.3951512575149536,-0.7740411395052775 2.3916878700256348,-2.515633703392152 s2.590995192527771,-4.063715982402707 3.487878143787384,-5.2247776916606234 c1.6941122412681584,-2.0318579912013535 1.6941122412681584,-2.0318579912013535 1.6941122412681584,0.8707962819434373 c0,1.548082279010555 -0.7972292900085451,5.031267406784304 -1.6941122412681584,7.740411395052774 l-1.6941122412681584,4.741001979469825 l-6.178526997566223,-0.1935102848763195 c-3.487878143787384,-0.09675514243815979 -7.573678255081177,-0.7740411395052775 -9.267790496349335,-1.6448374214487151 c-5.28164404630661,-2.7091439882684707 -13.453244268894196,-9.09498338918701 -15.84493213891983,-12.578168516960758 c-1.2954975962638855,-1.9351028487631938 -2.590995192527771,-3.192919700459269 -2.8899561762809753,-2.9994094155829503 c-0.9965366125106814,1.0643065668197567 5.082336723804474,9.385248816501488 9.965366125106812,13.545719941342355 c6.278180658817291,5.2247776916606234 4.185453772544861,6.289084258480379 -2.590995192527771,1.257816851696076 c-7.274717271327972,-5.2247776916606234 -11.759132027626038,-13.352209656466037 -9.367444157600403,-17.125660211554262 c0.597921967506409,-0.8707962819434373 0.7972292900085451,-2.515633703392152 0.3986146450042727,-3.4831851277737487 c-0.6975756287574771,-1.7415925638868746 -0.7972292900085451,-1.7415925638868746 -2.1923805475234985,0 c-3.2885708212852482,4.450736552155345 0.09965366125106817,14.610026508162111 6.975756287574768,20.70560048176617 l3.587531805038452,3.09616455802111 l-2.3916878700256348,6.0955739736040595 c-2.0927268862724304,5.515043118975103 -2.590995192527771,5.9988188311659005 -5.6802586913108835,6.482594543356699 c-3.2885708212852482,0.4837757121907985 -3.2885708212852482,0.5805308546289581 -1.1958439350128174,1.7415925638868746 c2.491341531276703,1.3545719941342358 5.979219675064087,8.41769739211989 6.8761026263237,13.642475083780514 c0.597921967506409,3.7734505550882274 -1.8934195637702942,17.222415353992425 -3.587531805038452,18.867252775441138 c-0.597921967506409,0.5805308546289581 -0.3986146450042727,1.548082279010555 0.6975756287574771,2.7091439882684707 c1.3951512575149536,1.548082279010555 1.4948049187660217,2.0318579912013535 0.3986146450042727,2.6123888458303117 c-1.793765902519226,1.0643065668197567 -4.584068417549133,0.29026542731447935 -6.5771416425704965,-1.8383477063250337 c-1.5944585800170898,-1.7415925638868746 -1.5944585800170898,-1.7415925638868746 0.3986146450042727,-1.257816851696076 c2.0927268862724304,0.4837757121907985 2.0927268862724304,0.4837757121907985 -0.3986146450042727,-4.063715982402707 c-1.3951512575149536,-2.515633703392152 -2.491341531276703,-5.418287976536941 -2.491341531276703,-6.385839400918538 s-0.4982683062553408,-2.0318579912013535 -1.1958439350128174,-2.418878560953992 c-0.7972292900085451,-0.4837757121907985 -0.896882951259613,0.5805308546289581 -0.4982683062553408,3.9669608399645466 c0.597921967506409,3.9669608399645466 0.4982683062553408,4.450736552155345 -0.7972292900085451,3.3864299853355893 c-4.185453772544861,-3.3864299853355893 -5.979219675064087,-19.351028487631936 -2.590995192527771,-23.317989327596486 c1.8934195637702942,-2.2253682760776723 2.0927268862724304,-2.322123418515832 4.982683062553406,-0.6772859970671178 c3.687185466289521,1.9351028487631938 5.082336723804474,0.5805308546289581 2.491341531276703,-2.322123418515832 c-4.584068417549133,-4.837757121907984 -9.467097818851471,-4.063715982402707 -12.058093011379242,1.8383477063250337 c-2.3916878700256348,5.805308546289581 -1.3951512575149536,17.89970135105954 1.9930732250213623,23.60825475491096 c1.4948049187660217,2.418878560953992 2.690648853778839,5.128022549222464 2.690648853778839,5.9988188311659005 c0,1.4513271365723952 -8.47056120634079,24.9628267490452 -14.948049187660217,41.5079561059705 c-1.8934195637702942,4.934512264346143 -3.9861464500427246,7.353390825300135 -3.9861464500427246,4.644246837031664 c0,-1.161061709257916 -4.584068417549133,-13.642475083780514 -47.335489094257355,-128.6843394427524 c-37.07116198539734,-99.46428642642815 -53.115401446819305,-143.48787623579082 -59.991504073143005,-163.51619072048987 c-11.260863721370697,-32.703238144097966 -12.357053995132446,-35.60589241724276 -14.649088203907013,-36.18642327187172 c-3.2885708212852482,-0.8707962819434373 -43.84761095046997,-0.6772859970671178 -45.242762207984924,0.29026542731447935 zm258.1029826402664,50.02240864052856 c2.590995192527771,1.257816851696076 6.278180658817291,3.7734505550882274 8.071946561336517,5.611798261413262 c3.587531805038452,3.3864299853355893 8.370907545089722,11.900882519893642 7.274717271327972,12.868433944275239 c-0.2989609837532046,0.29026542731447935 -2.3916878700256348,-1.0643065668197567 -4.584068417549133,-2.9994094155829503 c-4.285107433795929,-3.7734505550882274 -7.474024593830109,-4.837757121907984 -4.384761095046997,-1.3545719941342358 c4.285107433795929,4.741001979469825 6.5771416425704965,6.579349685794858 7.872639238834381,6.579349685794858 c0.7972292900085451,0 1.4948049187660217,0.8707962819434373 1.4948049187660217,2.0318579912013535 c0,1.6448374214487151 -0.9965366125106814,1.161061709257916 -5.979219675064087,-3.192919700459269 c-3.2885708212852482,-2.8058991307066306 -5.979219675064087,-5.805308546289581 -5.979219675064087,-6.579349685794858 c-0.09965366125106817,-3.09616455802111 -6.178526997566223,-10.836575953073883 -10.762595415115356,-13.642475083780514 l-4.683722078800201,-2.8058991307066306 l3.487878143787384,0.5805308546289581 c1.8934195637702942,0.38702056975263904 5.5806050300598145,1.7415925638868746 8.171600222587585,2.9026542731447904 zm38.16735225915909,12.09439280476996 c0.896882951259613,1.6448374214487151 1.3951512575149536,3.192919700459269 1.0961902737617493,3.4831851277737487 c-0.6975756287574771,0.7740411395052775 -7.872639238834381,-2.9026542731447904 -8.370907545089722,-4.257226267279027 c-0.2989609837532046,-0.9675514243815968 1.3951512575149536,-1.8383477063250337 4.484414756298065,-2.1286131336395133 c0.6975756287574771,0 1.9930732250213623,1.257816851696076 2.7903025150299072,2.9026542731447904 zm-35.77566438913345,5.611798261413262 c5.480951368808746,3.870205697526387 10.662941753864288,9.385248816501488 9.965366125106812,10.546310525759406 c-0.2989609837532046,0.4837757121907985 0.2989609837532046,1.161061709257916 1.3951512575149536,1.4513271365723952 c2.2920342087745667,0.5805308546289581 3.687185466289521,3.289674842897429 2.2920342087745667,4.644246837031664 c-0.4982683062553408,0.4837757121907985 -3.0892634987831116,1.257816851696076 -5.779912352561951,1.7415925638868746 c-2.7903025150299072,0.4837757121907985 -6.278180658817291,1.6448374214487151 -7.972292900085449,2.418878560953992 c-1.5944585800170898,0.8707962819434373 -3.7868391275405884,1.548082279010555 -4.683722078800201,1.548082279010555 c-0.9965366125106814,0 -1.793765902519226,0.6772859970671178 -1.793765902519226,1.4513271365723952 c0,2.1286131336395133 -6.776448965072632,2.9994094155829503 -9.865712463855743,1.3545719941342358 c-2.0927268862724304,-1.161061709257916 -2.690648853778839,-2.2253682760776723 -2.8899561762809753,-5.9988188311659005 c-0.2989609837532046,-4.063715982402707 0.19930732250213634,-5.418287976536941 4.484414756298065,-11.997637662331801 c4.584068417549133,-7.063125397985656 7.474024593830109,-9.965779671130448 9.865712463855743,-9.965779671130448 c0.597921967506409,0 2.8899561762809753,1.257816851696076 4.982683062553406,2.8058991307066306 zm44.04691827297211,8.127431964805414 l2.1923805475234985,2.322123418515832 l-2.0927268862724304,1.8383477063250337 c-1.1958439350128174,0.9675514243815968 -2.491341531276703,2.8058991307066306 -2.9896098375320435,4.063715982402707 c-0.9965366125106814,2.515633703392152 -4.683722078800201,2.6123888458303117 -3.9861464500427246,0.09675514243815979 c1.5944585800170898,-5.128022549222464 3.687185466289521,-10.546310525759406 4.185453772544861,-10.546310525759406 c0.2989609837532046,0 1.4948049187660217,0.9675514243815968 2.690648853778839,2.2253682760776723 zm-20.13003957271576,5.031267406784304 c2.590995192527771,1.3545719941342358 5.979219675064087,2.418878560953992 7.474024593830109,2.418878560953992 c3.8864927887916565,0 3.687185466289521,2.322123418515832 -0.19930732250213634,3.870205697526387 c-2.590995192527771,1.0643065668197567 -3.487878143787384,1.0643065668197567 -5.879566013813019,-0.29026542731447935 c-1.4948049187660217,-0.9675514243815968 -3.9861464500427246,-1.6448374214487151 -5.381297707557678,-1.6448374214487151 c-2.2920342087745667,0 -2.590995192527771,-0.38702056975263904 -2.590995192527771,-3.3864299853355893 c0,-1.8383477063250337 0.3986146450042727,-3.3864299853355893 0.896882951259613,-3.3864299853355893 c0.597921967506409,0 3.0892634987831116,1.0643065668197567 5.6802586913108835,2.418878560953992 zm-6.5771416425704965,47.11975436738377 c2.3916878700256348,2.515633703392152 2.690648853778839,8.320942249681732 0.4982683062553408,12.38465823208444 c-1.5944585800170898,3.09616455802111 -6.078873336315155,7.740411395052774 -7.3743709325790405,7.740411395052774 c-0.3986146450042727,0 -1.5944585800170898,0.8707962819434373 -2.590995192527771,1.9351028487631938 c-2.0927268862724304,2.322123418515832 -4.285107433795929,2.418878560953992 -8.96882951259613,0.5805308546289581 c-3.0892634987831116,-1.3545719941342358 -4.982683062553406,-0.5805308546289581 -2.491341531276703,0.8707962819434373 c1.9930732250213623,1.161061709257916 0.9965366125106814,3.3864299853355893 -1.4948049187660217,3.3864299853355893 c-1.4948049187660217,0 -2.491341531276703,-0.5805308546289581 -2.491341531276703,-1.4513271365723952 c0,-0.7740411395052775 -1.0961902737617493,-2.9994094155829503 -2.491341531276703,-4.934512264346143 c-2.8899561762809753,-4.160471124840866 -3.1889171600341797,-8.224187107243573 -0.6975756287574771,-10.256045098444925 c0.896882951259613,-0.7740411395052775 4.883029401302338,-3.09616455802111 8.669868528842926,-5.128022549222464 c15.84493213891983,-8.41769739211989 16.143893122673035,-8.514452534558053 19.432463943958282,-5.128022549222464 zm27.205449521541595,6.7728599706711785 c-1.2954975962638855,1.161061709257916 -2.590995192527771,1.7415925638868746 -2.9896098375320435,1.3545719941342358 c-0.3986146450042727,-0.38702056975263904 0.09965366125106817,-1.3545719941342358 1.0961902737617493,-2.1286131336395133 c3.0892634987831116,-2.1286131336395133 4.285107433795929,-1.6448374214487151 1.8934195637702942,0.7740411395052775 zm-73.84336298704147,36.18642327187172 c3.9861464500427246,0.6772859970671178 4.185453772544861,2.322123418515832 0.2989609837532046,2.322123418515832 c-1.8934195637702942,0 -2.590995192527771,0.8707962819434373 -3.8864927887916565,4.547491694593505 c-1.4948049187660217,4.353981409717186 -1.4948049187660217,4.741001979469825 0.09965366125106817,5.90206368872774 c2.1923805475234985,1.548082279010555 3.487878143787384,1.0643065668197567 4.982683062553406,-1.7415925638868746 c1.4948049187660217,-2.9026542731447904 2.690648853778839,-3.5799402702119085 8.271253883838654,-4.353981409717186 c8.271253883838654,-1.161061709257916 12.65601497888565,4.644246837031664 13.552897930145264,18.09321163593586 c0.3986146450042727,5.321532834098783 1.2954975962638855,9.19173853162517 2.590995192527771,11.320351665264681 c1.2954975962638855,2.322123418515832 1.5944585800170898,3.5799402702119085 0.896882951259613,4.257226267279027 c-0.597921967506409,0.5805308546289581 -1.0961902737617493,2.0318579912013535 -1.0961902737617493,3.289674842897429 c0,3.676695412650068 -2.0927268862724304,6.8696151131093375 -5.480951368808746,8.514452534558053 c-1.793765902519226,0.7740411395052775 -3.7868391275405884,1.4513271365723952 -4.384761095046997,1.4513271365723952 c-0.597921967506409,0 -1.0961902737617493,0.38702056975263904 -1.0961902737617493,0.9675514243815968 c0,0.4837757121907985 0.9965366125106814,0.9675514243815968 2.0927268862724304,0.9675514243815968 c1.793765902519226,0 2.0927268862724304,0.38702056975263904 1.5944585800170898,2.6123888458303117 c-0.2989609837532046,1.548082279010555 -0.896882951259613,3.4831851277737487 -1.2954975962638855,4.547491694593505 c-0.597921967506409,1.4513271365723952 -0.3986146450042727,1.6448374214487151 1.3951512575149536,1.0643065668197567 c2.7903025150299072,-0.7740411395052775 2.7903025150299072,0.38702056975263904 -0.09965366125106817,4.450736552155345 c-1.2954975962638855,1.8383477063250337 -2.590995192527771,4.063715982402707 -2.9896098375320435,4.934512264346143 c-0.6975756287574771,2.0318579912013535 -6.4774879813194275,5.611798261413262 -8.769522190093994,5.611798261413262 c-4.584068417549133,0 -5.28164404630661,-7.256635682861976 -1.8934195637702942,-18.9640079178793 c1.8934195637702942,-6.579349685794858 2.1923805475234985,-9.09498338918701 1.5944585800170898,-17.60943592374506 c-0.896882951259613,-14.803536793038433 2.0927268862724304,-19.834804199822734 9.566751480102539,-16.254863929610828 c3.7868391275405884,1.8383477063250337 3.7868391275405884,1.8383477063250337 3.7868391275405884,0.1935102848763195 c0,-1.9351028487631938 -3.8864927887916565,-4.450736552155345 -6.676795303821564,-4.450736552155345 c-1.1958439350128174,0 -3.8864927887916565,1.3545719941342358 -5.779912352561951,3.09616455802111 l-3.687185466289521,2.9994094155829503 l-2.0927268862724304,-2.418878560953992 c-1.1958439350128174,-1.4513271365723952 -4.285107433795929,-3.7734505550882274 -6.8761026263237,-5.321532834098783 c-9.467097818851471,-5.515043118975103 -12.755668640136719,-14.319761080847634 -7.175063610076904,-18.576987348126657 c2.690648853778839,-2.1286131336395133 6.078873336315155,-2.418878560953992 12.556361317634583,-1.4513271365723952 zm37.66908395290375,19.254273345193774 c-0.597921967506409,1.8383477063250337 -1.793765902519226,3.3864299853355893 -2.590995192527771,3.3864299853355893 c-1.8934195637702942,0 -1.6941122412681584,-1.6448374214487151 0.7972292900085451,-6.7728599706711785 c1.793765902519226,-3.676695412650068 2.1923805475234985,-4.063715982402707 2.491341531276703,-2.1286131336395133 c0.2989609837532046,1.161061709257916 -0.09965366125106817,3.676695412650068 -0.6975756287574771,5.515043118975103 zm-14.350127220153809,37.05721955381515 c-0.3986146450042727,0.29026542731447935 -1.1958439350128174,0 -1.8934195637702942,-0.6772859970671178 c-0.896882951259613,-0.8707962819434373 -0.896882951259613,-1.3545719941342358 0.2989609837532046,-2.0318579912013535 c1.0961902737617493,-0.6772859970671178 1.5944585800170898,-0.4837757121907985 1.793765902519226,0.5805308546289581 c0.19930732250213634,0.8707962819434373 0.09965366125106817,1.7415925638868746 -0.19930732250213634,2.1286131336395133 zm-22.920342087745667,11.030086237950204 c-0.19930732250213634,2.322123418515832 -0.3986146450042727,4.741001979469825 -0.4982683062553408,5.321532834098783 c-0.19930732250213634,2.6123888458303117 -5.082336723804474,1.257816851696076 -9.068483173847198,-2.6123888458303117 c-5.082336723804474,-4.934512264346143 -5.082336723804474,-6.19232911604222 -0.19930732250213634,-5.418287976536941 c2.8899561762809753,0.4837757121907985 6.5771416425704965,0 9.865712463855743,-1.257816851696076 c0.09965366125106817,-0.09675514243815979 0.09965366125106817,1.7415925638868746 -0.09965366125106817,3.9669608399645466 zm-14.848395526409151,23.60825475491096 c0.2989609837532046,0.8707962819434373 -0.19930732250213634,4.063715982402707 -1.1958439350128174,7.063125397985656 l-1.793765902519226,5.418287976536941 l-1.2954975962638855,-2.9026542731447904 c-1.5944585800170898,-3.5799402702119085 -1.6941122412681584,-6.7728599706711785 -0.3986146450042727,-9.288493674063329 c1.2954975962638855,-2.2253682760776723 3.7868391275405884,-2.418878560953992 4.683722078800201,-0.29026542731447935 zm1.5944585800170898,20.70560048176617 c-0.2989609837532046,1.161061709257916 0.19930732250213634,2.7091439882684707 0.9965366125106814,3.676695412650068 c1.4948049187660217,1.548082279010555 1.4948049187660217,2.2253682760776723 -0.09965366125106817,7.450145967738296 c-0.9965366125106814,3.192919700459269 -2.1923805475234985,5.708553403851422 -2.7903025150299072,5.611798261413262 c-1.5944585800170898,-0.29026542731447935 -2.7903025150299072,-9.09498338918701 -1.4948049187660217,-11.126841380388363 c0.597921967506409,-0.9675514243815968 1.0961902737617493,-2.9994094155829503 1.0961902737617493,-4.450736552155345 c0,-1.548082279010555 0.2989609837532046,-3.09616455802111 0.597921967506409,-3.3864299853355893 c1.1958439350128174,-1.161061709257916 2.1923805475234985,0.29026542731447935 1.6941122412681584,2.2253682760776723 zm-11.260863721370697,8.707962819434371 c0,6.8696151131093375 -0.6975756287574771,8.030676822367255 -3.0892634987831116,5.2247776916606234 c-0.7972292900085451,-0.8707962819434373 -3.0892634987831116,-2.6123888458303117 -5.082336723804474,-3.870205697526387 c-4.384761095046997,-2.7091439882684707 -4.683722078800201,-3.7734505550882274 -1.5944585800170898,-4.644246837031664 c1.6941122412681584,-0.38702056975263904 2.7903025150299072,0.1935102848763195 4.384761095046997,2.0318579912013535 c1.3951512575149536,1.7415925638868746 2.2920342087745667,2.2253682760776723 2.7903025150299072,1.4513271365723952 c0.3986146450042727,-0.6772859970671178 0.3986146450042727,-1.6448374214487151 0.09965366125106817,-2.1286131336395133 c-0.7972292900085451,-1.257816851696076 0.3986146450042727,-4.837757121907984 1.5944585800170898,-4.837757121907984 c0.4982683062553408,0 0.896882951259613,2.9994094155829503 0.896882951259613,6.7728599706711785 zm6.178526997566223,16.932149926677944 c0.7972292900085451,1.7415925638868746 0.7972292900085451,3.4831851277737487 -0.19930732250213634,6.966370255547497 c-1.8934195637702942,6.579349685794858 -6.975756287574768,19.544538772508254 -7.972292900085449,20.125069627137215 c-1.9930732250213623,1.161061709257916 -1.5944585800170898,-1.4513271365723952 1.2954975962638855,-8.224187107243573 c2.690648853778839,-6.482594543356699 3.1889171600341797,-9.48200395893965 3.687185466289521,-20.608845339328013 c0,-1.548082279010555 2.0927268862724304,-0.4837757121907985 3.1889171600341797,1.7415925638868746 z" id="svg_9"/>
        <path d="M820.577197803661,256.4042369611463 c0.6975756287574771,0.29026542731447935 1.5944585800170898,0.1935102848763195 1.8934195637702942,-0.09675514243815979 c0.3986146450042727,-0.29026542731447935 -0.19930732250213634,-0.5805308546289581 -1.2954975962638855,-0.4837757121907985 c-1.0961902737617493,0 -1.3951512575149536,0.29026542731447935 -0.597921967506409,0.5805308546289581 z" id="svg_10"/>
        <path d="M804.6326120034901,385.95937268584214 c-1.5944585800170898,0.7740411395052775 -2.7903025150299072,1.6448374214487151 -2.7903025150299072,1.8383477063250337 c0,1.0643065668197567 2.690648853778839,0.29026542731447935 4.982683062553406,-1.4513271365723952 c2.8899561762809753,-2.2253682760776723 1.6941122412681584,-2.515633703392152 -2.1923805475234985,-0.38702056975263904 z" id="svg_11"/>
        <path d="M928.5021129385677,173.48507989164347 c-1.2954975962638855,1.0643065668197567 -2.8899561762809753,1.9351028487631938 -3.687185466289521,1.9351028487631938 c-0.7972292900085451,0 -1.3951512575149536,0.38702056975263904 -1.3951512575149536,0.9675514243815968 c0,1.161061709257916 0.19930732250213634,1.161061709257916 3.388224482536316,0 c1.3951512575149536,-0.4837757121907985 2.9896098375320435,-1.7415925638868746 3.587531805038452,-2.9026542731447904 c1.2954975962638855,-2.418878560953992 1.0961902737617493,-2.418878560953992 -1.8934195637702942,0 z" id="svg_12"/>
        <path d="M918.4370931522099,179.29038843793307 c-1.2954975962638855,0.7740411395052775 -1.2954975962638855,0.9675514243815968 0.19930732250213634,0.9675514243815968 c0.896882951259613,0 1.9930732250213623,-0.4837757121907985 2.2920342087745667,-0.9675514243815968 c0.7972292900085451,-1.257816851696076 -0.4982683062553408,-1.257816851696076 -2.491341531276703,0 z" id="svg_13"/>
        <path d="M836.1231689588276,184.03139041740286 c-2.2920342087745667,0.9675514243815968 -5.28164404630661,3.289674842897429 -6.776448965072632,5.128022549222464 c-2.9896098375320435,3.9669608399645466 -5.381297707557678,13.932740511094995 -3.687185466289521,15.57757793254371 c0.7972292900085451,0.7740411395052775 1.0961902737617493,0.09675514243815979 1.0961902737617493,-2.322123418515832 c0,-5.515043118975103 1.793765902519226,-9.965779671130448 5.181990385055542,-13.158699371589716 c5.779912352561951,-5.418287976536941 11.65947836637497,-6.482594543356699 18.236620008945465,-3.192919700459269 c4.584068417549133,2.2253682760776723 4.484414756298065,2.2253682760776723 4.484414756298065,0.9675514243815968 c0,-1.548082279010555 -7.972292900085449,-4.837757121907984 -11.460171043872833,-4.837757121907984 c-1.5944585800170898,0 -4.883029401302338,0.8707962819434373 -7.075409948825836,1.8383477063250337 z" id="svg_14"/>
        <path d="M866.7168429629055,187.70808583005294 c-0.09965366125106817,1.6448374214487151 0.3986146450042727,3.3864299853355893 0.896882951259613,3.676695412650068 c1.1958439350128174,0.6772859970671178 1.1958439350128174,-2.1286131336395133 0,-4.837757121907984 c-0.6975756287574771,-1.6448374214487151 -0.896882951259613,-1.4513271365723952 -0.896882951259613,1.161061709257916 z" id="svg_15"/>
        <path d="M884.0565800205914,187.61133068761478 c-1.3951512575149536,1.4513271365723952 -2.491341531276703,3.4831851277737487 -2.491341531276703,4.644246837031664 c0,1.6448374214487151 0.3986146450042727,1.4513271365723952 2.9896098375320435,-1.3545719941342358 c4.484414756298065,-5.128022549222464 3.9861464500427246,-8.030676822367255 -0.4982683062553408,-3.289674842897429 z" id="svg_16"/>
        <path d="M837.7176275388447,190.90100553051224 c0,0.9675514243815968 1.3951512575149536,1.3545719941342358 8.271253883838654,2.418878560953992 c2.1923805475234985,0.29026542731447935 3.687185466289521,0.1935102848763195 3.687185466289521,-0.38702056975263904 c0,-1.0643065668197567 -6.178526997566223,-2.9994094155829503 -9.666405141353607,-2.9994094155829503 c-1.2954975962638855,0 -2.2920342087745667,0.38702056975263904 -2.2920342087745667,0.9675514243815968 z" id="svg_17"/>
        <path d="M885.5513849393574,195.64200750998202 c-1.2954975962638855,2.418878560953992 -1.2954975962638855,3.289674842897429 0,2.515633703392152 c1.5944585800170898,-0.9675514243815968 3.1889171600341797,-4.353981409717186 2.0927268862724304,-4.353981409717186 c-0.597921967506409,0 -1.4948049187660217,0.8707962819434373 -2.0927268862724304,1.8383477063250337 z" id="svg_18"/>
        <path d="M873.3936382667271,207.05911431768487 c0.6975756287574771,0.29026542731447935 1.5944585800170898,0.1935102848763195 1.8934195637702942,-0.09675514243815979 c0.3986146450042727,-0.29026542731447935 -0.19930732250213634,-0.5805308546289581 -1.2954975962638855,-0.4837757121907985 c-1.0961902737617493,0 -1.3951512575149536,0.29026542731447935 -0.597921967506409,0.5805308546289581 z" id="svg_19"/>
        <path d="m872.8953699604717,214.79952571273765 l-3.1889171600341797,2.7091439882684707 l2.3916878700256348,3.5799402702119085 c4.085800111293793,5.9988188311659005 12.257400333881378,8.41769739211989 14.848395526409151,4.353981409717186 c2.690648853778839,-4.063715982402707 -5.381297707557678,-7.546901110176455 -9.467097818851471,-3.9669608399645466 c-1.5944585800170898,1.4513271365723952 -1.8934195637702942,1.4513271365723952 -1.8934195637702942,0.1935102848763195 c0,-0.8707962819434373 0.597921967506409,-2.0318579912013535 1.3951512575149536,-2.7091439882684707 c0.7972292900085451,-0.5805308546289581 1.1958439350128174,-1.7415925638868746 0.896882951259613,-2.515633703392152 c-0.2989609837532046,-0.6772859970671178 0.19930732250213634,-1.6448374214487151 1.0961902737617493,-1.9351028487631938 c2.3916878700256348,-0.8707962819434373 1.8934195637702942,-2.322123418515832 -0.6975756287574771,-2.322123418515832 c-1.1958439350128174,0 -3.687185466289521,1.161061709257916 -5.381297707557678,2.6123888458303117 zM883.558311714336,223.7977539594865 c0,0.4837757121907985 -0.6975756287574771,0.6772859970671178 -1.4948049187660217,0.38702056975263904 c-0.7972292900085451,-0.38702056975263904 -1.1958439350128174,-0.9675514243815968 -0.896882951259613,-1.4513271365723952 c0.597921967506409,-1.0643065668197567 2.3916878700256348,-0.1935102848763195 2.3916878700256348,1.0643065668197567 z" id="svg_20"/>
        <path d="M844.4940765039173,220.6048342590272 c0.6975756287574771,0.29026542731447935 1.5944585800170898,0.1935102848763195 1.8934195637702942,-0.09675514243815979 c0.3986146450042727,-0.29026542731447935 -0.19930732250213634,-0.5805308546289581 -1.2954975962638855,-0.4837757121907985 c-1.0961902737617493,0 -1.3951512575149536,0.29026542731447935 -0.597921967506409,0.5805308546289581 z" id="svg_21"/>
        <path d="M792.4748653308598,223.6042436746102 c3.8864927887916565,3.289674842897429 8.570214867591858,6.0955739736040595 8.171600222587585,4.934512264346143 c-0.4982683062553408,-1.548082279010555 -6.4774879813194275,-5.708553403851422 -8.071946561336517,-5.708553403851422 c-0.6975756287574771,0 -0.6975756287574771,0.29026542731447935 -0.09965366125106817,0.7740411395052775 z" id="svg_22"/>
        <path d="M891.5306046144215,223.9912642443628 c0,0.8707962819434373 -0.2989609837532046,2.2253682760776723 -0.597921967506409,3.09616455802111 c-0.2989609837532046,0.8707962819434373 -0.19930732250213634,1.548082279010555 0.3986146450042727,1.548082279010555 c1.3951512575149536,0 2.2920342087745667,-4.160471124840866 1.1958439350128174,-5.2247776916606234 c-0.6975756287574771,-0.6772859970671178 -0.9965366125106814,-0.38702056975263904 -0.9965366125106814,0.5805308546289581 z" id="svg_23"/>
        <path d="M866.6171893016544,228.24849051164188 c-1.6941122412681584,1.4513271365723952 -2.8899561762809753,2.7091439882684707 -2.690648853778839,2.9994094155829503 c0.7972292900085451,0.6772859970671178 7.673331916332245,-3.7734505550882274 7.075409948825836,-4.644246837031664 c-0.6975756287574771,-1.257816851696076 -0.896882951259613,-1.161061709257916 -4.384761095046997,1.6448374214487151 z" id="svg_24"/>
        <path d="M769.355215920612,246.92223300220667 c-8.96882951259613,3.9669608399645466 -9.865712463855743,16.641884499363464 -1.3951512575149536,20.899110766642494 c3.2885708212852482,1.6448374214487151 8.47056120634079,1.9351028487631938 7.474024593830109,0.4837757121907985 c-0.2989609837532046,-0.5805308546289581 -1.6941122412681584,-0.9675514243815968 -2.9896098375320435,-0.9675514243815968 c-1.3951512575149536,0 -3.8864927887916565,-1.257816851696076 -5.6802586913108835,-2.8058991307066306 c-2.7903025150299072,-2.418878560953992 -3.2885708212852482,-3.4831851277737487 -3.1889171600341797,-6.8696151131093375 c0.19930732250213634,-5.418287976536941 4.285107433795929,-9.578759101377809 10.264327108860016,-10.352800240883084 c2.7903025150299072,-0.38702056975263904 3.7868391275405884,-0.8707962819434373 2.8899561762809753,-1.3545719941342358 c-1.8934195637702942,-1.161061709257916 -2.7903025150299072,-1.0643065668197567 -7.3743709325790405,0.9675514243815968 z" id="svg_25"/>
        <path d="M859.6414330140797,285.2372694077179 c-0.6975756287574771,0.7740411395052775 -1.3951512575149536,3.4831851277737487 -1.6941122412681584,6.0955739736040595 c-0.2989609837532046,3.3864299853355893 -0.19930732250213634,4.160471124840866 0.597921967506409,3.09616455802111 c0.597921967506409,-0.7740411395052775 1.0961902737617493,-2.1286131336395133 1.0961902737617493,-2.9026542731447904 c0,-0.7740411395052775 0.6975756287574771,-2.7091439882684707 1.4948049187660217,-4.257226267279027 c0.7972292900085451,-1.4513271365723952 1.4948049187660217,-2.9026542731447904 1.4948049187660217,-3.09616455802111 c0,-0.9675514243815968 -1.8934195637702942,-0.29026542731447935 -2.9896098375320435,1.0643065668197567 z" id="svg_26"/>
        <path d="M777.6264698044506,305.84611474704593 c-0.19930732250213634,1.9351028487631938 -0.19930732250213634,3.9669608399645466 0.09965366125106817,4.450736552155345 c0.6975756287574771,1.257816851696076 2.1923805475234985,-1.548082279010555 2.1923805475234985,-4.450736552155345 c0,-4.063715982402707 -1.6941122412681584,-4.063715982402707 -2.2920342087745667,0 z" id="svg_27"/>
        <path d="M853.6622133390156,324.3263469527344 c-6.4774879813194275,1.9351028487631938 -13.851858913898468,6.966370255547497 -16.044239461421967,10.933331095512045 c-1.4948049187660217,2.6123888458303117 0.3986146450042727,2.1286131336395133 4.683722078800201,-1.257816851696076 c8.669868528842926,-6.7728599706711785 17.240083396434784,-9.09498338918701 21.22622984647751,-5.9988188311659005 c2.9896098375320435,2.322123418515832 2.2920342087745667,4.837757121907984 -2.690648853778839,10.159289956006766 c-4.185453772544861,4.450736552155345 -9.168136835098267,7.159880540423817 -16.143893122673035,8.611207676996212 c-5.779912352561951,1.161061709257916 -6.178526997566223,3.09616455802111 -0.7972292900085451,3.5799402702119085 l3.587531805038452,0.29026542731447935 l-2.8899561762809753,5.418287976536941 c-2.0927268862724304,3.7734505550882274 -2.8899561762809753,6.6761048282330195 -2.8899561762809753,10.062534813568607 c0,5.2247776916606234 2.7903025150299072,11.80412737745548 5.480951368808746,12.771678801837076 c1.9930732250213623,0.7740411395052775 1.8934195637702942,0 -0.9965366125106814,-5.515043118975103 c-2.7903025150299072,-5.321532834098783 -2.9896098375320435,-7.063125397985656 -1.3951512575149536,-12.674923659398917 c1.2954975962638855,-4.450736552155345 6.776448965072632,-10.159289956006766 9.766058802604675,-10.159289956006766 c4.883029401302338,0 12.357053995132446,9.385248816501488 15.645624816417694,19.834804199822734 l1.8934195637702942,5.805308546289581 l0.2989609837532046,-3.676695412650068 c0.597921967506409,-6.966370255547497 -7.972292900085449,-20.80235562420433 -14.150819897651672,-23.027723900282005 c-3.1889171600341797,-1.161061709257916 -4.883029401302338,-2.8058991307066306 -2.7903025150299072,-2.8058991307066306 c1.8934195637702942,0 9.367444157600403,-7.256635682861976 11.260863721370697,-10.836575953073883 c4.484414756298065,-8.611207676996212 -2.3916878700256348,-14.610026508162111 -13.054629623889923,-11.513861950141004 z" id="svg_28"/>
        <path d="M844.1951155201641,338.83961831845835 c-2.491341531276703,1.0643065668197567 -5.979219675064087,4.741001979469825 -5.181990385055542,5.515043118975103 c0.2989609837532046,0.38702056975263904 1.9930732250213623,-0.4837757121907985 3.687185466289521,-1.9351028487631938 c1.6941122412681584,-1.3545719941342358 3.7868391275405884,-2.515633703392152 4.584068417549133,-2.515633703392152 c0.7972292900085451,0 1.3951512575149536,-0.4837757121907985 1.3951512575149536,-0.9675514243815968 c0,-1.161061709257916 -1.6941122412681584,-1.161061709257916 -4.484414756298065,-0.09675514243815979 z" id="svg_29"/>
        <path d="M865.6206526891438,343.2903548706137 c-1.0961902737617493,1.257816851696076 -0.597921967506409,1.3545719941342358 3.388224482536316,0.8707962819434373 c3.8864927887916565,-0.5805308546289581 5.5806050300598145,-0.1935102848763195 10.961902737617493,2.418878560953992 c8.869175851345062,4.257226267279027 11.759132027626038,7.740411395052774 11.460171043872833,13.739230226218673 c-0.19930732250213634,2.6123888458303117 0.09965366125106817,5.031267406784304 0.4982683062553408,5.418287976536941 c1.2954975962638855,1.257816851696076 2.590995192527771,-2.0318579912013535 2.590995192527771,-6.6761048282330195 c0,-3.9669608399645466 -0.4982683062553408,-5.2247776916606234 -3.687185466289521,-8.707962819434371 c-2.0927268862724304,-2.1286131336395133 -5.979219675064087,-5.031267406784304 -8.769522190093994,-6.19232911604222 c-5.879566013813019,-2.7091439882684707 -14.549434542655945,-3.09616455802111 -16.44285410642624,-0.8707962819434373 z" id="svg_30"/>
        <path d="M834.2297493950573,351.9015625476099 c-0.9965366125106814,0.6772859970671178 -1.4948049187660217,1.7415925638868746 -1.0961902737617493,2.418878560953992 c0.4982683062553408,0.6772859970671178 -0.3986146450042727,2.9026542731447904 -1.8934195637702942,5.128022549222464 c-1.4948049187660217,2.1286131336395133 -5.082336723804474,11.030086237950204 -7.972292900085449,19.738049057384572 c-2.8899561762809753,8.707962819434371 -6.278180658817291,18.286721920812177 -7.573678255081177,21.189376193956967 c-1.6941122412681584,3.870205697526387 -1.9930732250213623,5.611798261413262 -1.1958439350128174,6.385839400918538 c1.6941122412681584,1.6448374214487151 4.285107433795929,-4.063715982402707 10.762595415115356,-23.801765039787284 c3.1889171600341797,-9.578759101377809 7.175063610076904,-20.608845339328013 8.96882951259613,-24.382295894416238 c3.388224482536316,-7.063125397985656 3.388224482536316,-9.09498338918701 0,-6.6761048282330195 z" id="svg_31"/>
        <path d="M872.7957162992207,359.73872908510083 c0,1.548082279010555 0.19930732250213634,2.1286131336395133 0.4982683062553408,1.161061709257916 c0.19930732250213634,-0.8707962819434373 0.19930732250213634,-2.2253682760776723 0,-2.9026542731447904 c-0.2989609837532046,-0.5805308546289581 -0.4982683062553408,0.09675514243815979 -0.4982683062553408,1.7415925638868746 z" id="svg_32"/>
        <path d="M878.1770140067783,361.3835665065496 c-0.896882951259613,3.289674842897429 -0.7972292900085451,3.676695412650068 0.896882951259613,3.676695412650068 c0.9965366125106814,0 1.4948049187660217,-0.9675514243815968 1.4948049187660217,-2.9026542731447904 c0,-3.3864299853355893 -1.4948049187660217,-3.870205697526387 -2.3916878700256348,-0.7740411395052775 z" id="svg_33"/>
        <path d="M911.4613368646351,370.09152932598397 c6.5771416425704965,3.9669608399645466 9.965366125106812,9.48200395893965 9.965366125106812,16.545129356925308 c0,6.7728599706711785 -2.2920342087745667,10.836575953073883 -7.573678255081177,13.255454514027875 c-2.3916878700256348,1.161061709257916 -4.185453772544861,2.515633703392152 -3.7868391275405884,2.9994094155829503 c0.896882951259613,1.4513271365723952 3.388224482536316,0.9675514243815968 6.377834320068359,-1.0643065668197567 c10.56328809261322,-7.353390825300135 9.566751480102539,-25.059581891483354 -1.793765902519226,-32.02595214703086 c-2.491341531276703,-1.548082279010555 -5.480951368808746,-2.8058991307066306 -6.5771416425704965,-2.8058991307066306 c-1.2954975962638855,0 -0.19930732250213634,1.0643065668197567 3.388224482536316,3.09616455802111 z" id="svg_34"/>
        <path d="M852.0677547589985,373.38120416888137 c1.4948049187660217,1.3545719941342358 3.0892634987831116,2.1286131336395133 3.487878143787384,1.8383477063250337 c0.6975756287574771,-0.7740411395052775 -3.587531805038452,-4.353981409717186 -5.28164404630661,-4.353981409717186 c-0.597921967506409,0 0.19930732250213634,1.161061709257916 1.793765902519226,2.515633703392152 z" id="svg_35"/>
        <path d="M894.5202144519535,379.4767781424854 c0,0.8707962819434373 9.367444157600403,3.9669608399645466 12.058093011379242,3.9669608399645466 c2.590995192527771,0 -0.6975756287574771,-1.7415925638868746 -5.979219675064087,-3.289674842897429 c-6.377834320068359,-1.8383477063250337 -6.078873336315155,-1.7415925638868746 -6.078873336315155,-0.6772859970671178 z" id="svg_36"/>
        <path d="M766.2659524218288,380.25081928199074 c-2.2920342087745667,0.8707962819434373 -1.3951512575149536,2.418878560953992 0.9965366125106814,1.7415925638868746 c3.0892634987831116,-0.9675514243815968 4.484414756298065,-2.418878560953992 2.1923805475234985,-2.322123418515832 c-1.0961902737617493,0 -2.590995192527771,0.29026542731447935 -3.1889171600341797,0.5805308546289581 z" id="svg_37"/>
        <path d="M854.6587499515263,385.28208668877494 c0,0.4837757121907985 1.0961902737617493,2.1286131336395133 2.3916878700256348,3.676695412650068 c1.2954975962638855,1.4513271365723952 2.690648853778839,3.7734505550882274 3.0892634987831116,5.128022549222464 l0.6975756287574771,2.418878560953992 l-2.3916878700256348,-2.2253682760776723 c-1.2954975962638855,-1.161061709257916 -2.690648853778839,-2.1286131336395133 -3.0892634987831116,-2.1286131336395133 c-1.6941122412681584,0 -0.2989609837532046,2.418878560953992 3.9861464500427246,6.8696151131093375 c4.484414756298065,4.644246837031664 18.53558099269867,12.4814133745226 19.930732250213623,11.126841380388363 c0.3986146450042727,-0.29026542731447935 -3.2885708212852482,-4.353981409717186 -7.972292900085449,-8.90147310431069 c-4.7833757400512695,-4.547491694593505 -8.669868528842926,-8.80471796187253 -8.669868528842926,-9.48200395893965 c0,-0.6772859970671178 -1.793765902519226,-2.6123888458303117 -3.9861464500427246,-4.353981409717186 c-2.1923805475234985,-1.6448374214487151 -3.9861464500427246,-2.7091439882684707 -3.9861464500427246,-2.1286131336395133 z" id="svg_38"/>
        <path d="m876.0842871205059,392.6354775140751 l-3.9861464500427246,1.257816851696076 l3.687185466289521,0.09675514243815979 c1.9930732250213623,0.09675514243815979 3.9861464500427246,-0.38702056975263904 4.285107433795929,-0.9675514243815968 c1.0961902737617493,-1.548082279010555 0.2989609837532046,-1.6448374214487151 -3.9861464500427246,-0.38702056975263904 z" id="svg_39"/>
        <path d="M880.0704335705486,398.92456177255553 c-0.7972292900085451,1.257816851696076 2.491341531276703,1.257816851696076 4.484414756298065,0 c1.1958439350128174,-0.7740411395052775 0.896882951259613,-0.9675514243815968 -1.1958439350128174,-0.9675514243815968 c-1.4948049187660217,0 -2.9896098375320435,0.38702056975263904 -3.2885708212852482,0.9675514243815968 z" id="svg_40"/>
        <path d="M883.558311714336,402.79476747008187 c-3.487878143787384,0.6772859970671178 -3.487878143787384,0.6772859970671178 -0.4982683062553408,0.8707962819434373 c1.6941122412681584,0 3.687185466289521,-0.38702056975263904 4.484414756298065,-0.8707962819434373 c1.6941122412681584,-1.0643065668197567 1.0961902737617493,-1.0643065668197567 -3.9861464500427246,0 z" id="svg_41"/>
        <path d="M827.2539931074825,409.7611377256295 c-3.9861464500427246,1.0643065668197567 -9.467097818851471,4.160471124840866 -9.467097818851471,5.418287976536941 c0,0.38702056975263904 3.388224482536316,0.7740411395052775 7.474024593830109,0.7740411395052775 c7.772985577583313,0.1935102848763195 9.865712463855743,-0.7740411395052775 4.285107433795929,-1.9351028487631938 l-3.2885708212852482,-0.6772859970671178 l3.7868391275405884,-1.548082279010555 c1.9930732250213623,-0.7740411395052775 3.687185466289521,-1.8383477063250337 3.687185466289521,-2.322123418515832 c0,-1.0643065668197567 -1.1958439350128174,-0.9675514243815968 -6.4774879813194275,0.29026542731447935 z" id="svg_42"/>
    </g></g></svg>